<svg xmlns="http://www.w3.org/2000/svg" width="620.82" height="140.477" viewBox="0 0 620.82 140.477"><path fill="#ff88b7" d="M551.409 140.152c-5.171-.933-9.69-3.358-12.38-6.643-1.423-1.736-2.959-4.67-3.593-6.863-.456-1.576-.611-2.183-.607-6.22.004-4.33.131-4.53.722-6.22 2.322-6.645 7.738-12.925 15.858-18.387 6.405-4.309 14.416-7.27 30.664-11.33 2.64-.66 4.915-1.316 5.055-1.456.438-.442 1.165-3.305 1.165-4.59 0-.677-.054-1.231-.118-1.231-.297 0-2.102 1.04-3.677 2.119-3.383 2.316-6.65 3.658-10.507 4.315-2.397.408-3.504.348-6.432-.353-4.278-1.024-8.038-3.758-10.913-7.937l-.672-.977-2.337 1.967c-4.84 4.072-10.4 7.645-14.265 9.168-6 2.365-9.442 2.954-13.39 2.29-3.667-.617-5.89-1.42-8.328-3.005-2.24-1.457-3.585-2.78-5.101-5.02-.753-1.111-1.568-2.242-1.81-2.513-.423-.47-.465-.475-1.004-.124-.309.201-1.445 1.112-2.526 2.025-4.815 4.064-9.253 6.269-15.195 7.546-3.92.843-6.966.945-9.467.32-7.37-1.846-13.074-7.589-15.174-15.277-.46-1.682-.506-2.293-.494-6.548.011-4.745.406-9.24 1.356-15.495.228-1.501.413-2.876.413-3.056 0-.18.07-1.177.159-2.216l.16-1.888-1.722-.139c-4.104-.331-5.188-.543-6.782-1.326-3.407-1.673-4.719-4.653-3.558-8.084.844-2.493 2.868-4.123 5.793-4.664.698-.129 2.869-.234 4.825-.234h3.556l.425-.88c.233-.483.486-1.54.56-2.346.226-2.43.978-8.113 1.329-10.042.57-3.132 2.01-5.358 4.108-6.353 2.07-.981 5.608-.852 7.282.267.903.603 1.1.878 1.517 2.112.432 1.275.47 1.737.378 4.567-.057 1.731-.243 3.646-.415 4.256-.587 2.088-1.012 5.036-.945 6.563l.066 1.528.873.287c1.753.577 4.479.683 14.06.55 11.315-.158 10.649-.02 11.21-2.305.186-.753.446-2.302.578-3.442.462-3.972 1.122-7.822 1.567-9.138.553-1.638 1.882-3.731 2.772-4.364 1.064-.759 2.379-1.121 4.066-1.121 2.024 0 3.518.454 4.631 1.407 1.513 1.295 1.772 2.123 1.737 5.64-.019 1.842-.226 3.548-.437 4.557-.483 2.312-.87 6.954-.603 7.222.502.502 5.792.678 12.908.432 7.248-.252 8.524-.188 10.367.521 2.371.913 3.013 1.972 3.026 4.992.008 2.034-.042 2.293-.737 3.797-1.817 3.932-5.38 4.89-19.64 5.284-6.474.179-7.789.268-7.998.543-.68.892-2.043 8.701-2.475 14.166-.443 5.599-.14 10.371.77 12.13.581 1.124 2.713 3.246 3.81 3.792.54.269 1.588.613 2.328.766 1.258.26 1.478.24 3.383-.303 5.208-1.484 10.497-5.009 16.129-10.749 3.396-3.461 6.13-6.808 6.758-8.273.738-1.72 2.165-8.047 3.276-14.52.3-1.745 1.503-6.135 2.117-7.724 1.266-3.275 3.974-4.877 7.839-4.636 1.54.096 1.978.212 2.703.714.476.33 1.07.933 1.322 1.339.556.9 1.063 2.727 1.066 3.844.003 1.028-.838 5.257-1.987 9.979-1.68 6.909-1.818 7.563-2.71 12.877-.434 2.582-.417 6.85.034 8.243.538 1.667 1.738 3.098 3.24 3.866 1.134.579 1.495.655 2.988.628 1.384-.025 1.951-.15 3.07-.675 4.582-2.151 11.598-10.616 14.376-17.345.765-1.853 1.421-4.658 1.598-6.83.068-.84.51-3.443.983-5.784.472-2.34.928-4.747 1.013-5.347.203-1.434.725-2.416 1.88-3.536 1.167-1.132 2.433-1.699 4.499-2.012 3.329-.506 5.46.307 6.594 2.512.502.978.669 1.287.649 3.796-.015 1.76-.307 3.587-.598 5.133a331.95 331.95 0 0 0-.895 5.02c-.91 5.38-1.36 8.097-1.465 8.839-.06.42-.251 1.598-.425 2.619-.809 4.737-1.207 7.452-1.844 12.55-.672 5.38-1.082 9.147-1.202 11.044l-.134 2.097.72.304c.875.37 4.922.386 8.18.035 4.788-.517 8.372.77 8.906 3.2.08.368.238.67.348.67.34 0 .237 3.373-.125 4.067-.18.344-.326.778-.327.965-.002.522-1.145 2.201-2.019 2.967-.431.377-1.32.887-1.973 1.131-1.485.556-4.449 1.128-5.841 1.128-1.372 0-7.9.807-9.12 1.128-1.17.308-1.15.259-2.244 5.42-1.895 8.94-2.362 10.496-4.281 14.259-5.628 11.035-16.475 19.76-28.65 23.045-4.582 1.236-10.85 1.653-14.622.973zm8.836-13.295c2.904-.555 4.686-1.171 7.25-2.506 5.602-2.916 9.556-6.17 12.23-10.067 1.625-2.367 3.756-7.401 4.606-10.882.62-2.531 1.169-5.863 1.01-6.119-.07-.116-.816-.21-1.654-.21-1.311 0-2.237.233-6.59 1.661-6.749 2.215-8.69 2.992-13.489 5.397-10.723 5.376-15.28 10.302-14.97 16.185.152 2.893 1.157 4.521 3.494 5.665 2.35 1.15 5.122 1.449 8.113.876zm-69.229-53.462c1.88-.489 4.029-1.662 6.413-3.498 1.18-.909 2.685-2.059 3.346-2.556 5.001-3.768 6.57-7.182 7.848-17.083l.57-4.397c.207-1.579.318-3.02.248-3.201-.29-.757-2.329-.914-11.722-.903-8.579.01-13.409.25-14.676.732-.428.163-.581.525-.992 2.344a92.989 92.989 0 0 0-.818 4.116c-.183 1.08-.376 2.111-.428 2.291-.316 1.09-1.01 10.815-.889 12.473.334 4.594 1.865 7.25 5.145 8.921 2.103 1.072 3.888 1.3 5.955.761zm-478.46 16.96c-.986-.49-1.291-.785-1.741-1.685-.5-.998-.545-1.324-.528-3.82.012-1.5.222-4.495.47-6.656.717-6.263.943-12.09.567-14.619l-.194-1.306-.873-.155c-.48-.085-1.658-.162-2.618-.17-.96-.01-2.4-.156-3.199-.325C1.217 60.936 0 59.287 0 55.605c0-1.828.075-2.236.634-3.446.922-1.997 2.486-3.364 4.4-3.844 1.162-.292 7.064-1.221 7.756-1.221.385 0 1.408-6.053 1.744-10.319.125-1.587.376-4.457.558-6.378.18-1.92.417-5.014.523-6.874.281-4.922 1.013-12.412 1.31-13.423.973-3.305 3.128-5.448 5.751-5.718 1.297-.134 3.664.39 4.496.996 1.703 1.239 2.523 3.797 2.32 7.232-.15 2.563-.15 2.55-.756 7.093-1.055 7.89-1.98 18.157-2.157 23.921l-.124 4.061 3.788.16c5.135.218 30.762-.064 32.286-.354 1.595-.304 2.289-.687 2.582-1.424.213-.535 1.015-7.586 1.1-9.668.02-.42.18-2.35.361-4.29s.42-4.948.53-6.683c.191-3.02.62-7.227 1.116-10.96.86-6.463 1.208-7.68 2.529-8.84 1.327-1.166 2.43-1.595 4.373-1.701 1.639-.09 1.903-.044 3.188.557 1.502.703 2.394 1.643 2.897 3.053.4 1.12.392 5.94-.015 8.633a57.294 57.294 0 0 0-.447 4.256c-.194 3.279-.946 10.932-1.43 14.557-.546 4.077-.534 10.75.018 11.032.18.092 1.1.346 2.046.565 1.963.455 3.299 1.428 4.116 2.997.645 1.239.799 4.534.293 6.27-.414 1.423-1.41 3.082-2.132 3.556-.625.41-3.06.998-4.149 1.003-1.161.004-1.899.413-2.344 1.3-.502 1-.634 1.768-.89 5.177-.116 1.54-.357 4.52-.535 6.62-.179 2.101-.33 4.851-.338 6.112-.008 1.26-.096 2.992-.195 3.848-.325 2.8-1.86 5.019-4.304 6.222-2.495 1.228-5.402.922-7.246-.765-1.27-1.16-1.731-4.482-1.363-9.795.378-5.458.634-8.507.993-11.841.181-1.68.33-3.703.332-4.493l.002-1.438-1.254-.342c-.989-.269-1.695-.304-3.329-.164-1.14.097-8.604.24-16.587.317-8.649.084-14.928.232-15.54.367-1.828.403-1.987.72-2.518 5.03-.255 2.078-.472 4.26-.482 4.85-.011.59-.162 2.457-.338 4.147-.177 1.691-.375 3.811-.441 4.711-.17 2.318-.97 6.754-1.356 7.53-.54 1.085-1.628 2.086-2.869 2.64-.966.433-1.523.524-3.164.518-1.72-.006-2.155-.088-3.186-.6zm106.608-1.135c-8.827-.817-17.13-4.791-21.583-10.33a164.76 164.76 0 0 0-2.237-2.733l-.624-.728-3.165-.113c-4.5-.162-6.043-.76-7.393-2.864-1.24-1.931-1.901-5.212-1.346-6.673.322-.847 1.78-2.348 2.629-2.706.42-.177 1.83-.595 3.133-.928 1.303-.333 2.465-.701 2.582-.819.118-.118.252-.643.298-1.167.897-10.206 2.668-15.766 7.256-22.778 3.168-4.842 8.555-9.798 13.196-12.141 3.664-1.85 7.909-2.809 12.431-2.809 3.3 0 4.037.178 7.07 1.703 3.215 1.618 5.387 3.686 6.793 6.47 1.823 3.612 2.453 7.234 2.042 11.735-.579 6.334-2.573 11.092-6.311 15.055-4.771 5.059-8.134 7.626-13.243 10.11-2.573 1.25-2.8 1.34-7.359 2.9-1.646.563-2.996 1.127-3 1.253-.008.27 1.394 1.624 2.175 2.1 1.71 1.04 4.657 1.9 8.512 2.48 8.226 1.238 19.94-1.122 27.75-5.591 2.146-1.228 2.091-1.042 1.018-3.474-.992-2.246-2.76-8.135-3.543-11.801-1.184-5.546-1.55-8.669-1.552-15.372-.002-5.951.077-6.446.644-9.056 1.959-9.032 5.266-15.927 10.846-22.617 1.596-1.912 3.095-3.259 4.995-4.485 1.7-1.098 2.236-1.35 4.713-2.211 6.752-2.35 11.562-1.962 18.798 1.517 3.367 1.62 6.856 6.13 8.722 11.274.945 2.606 1.374 4.484 1.707 7.465.381 3.42.404 5.876.086 9.25-.231 2.456-1.336 8.526-1.726 9.484-.105.26-.45 1.306-.765 2.327-2.074 6.703-5.593 13.34-10.13 19.097-.661.84-2.753 3.099-4.647 5.02-1.895 1.92-3.445 3.645-3.445 3.832 0 .796 2.224 2.266 4.781 3.16 3.78 1.32 8.881 1.776 12.25 1.095 2.677-.54 7.368-2.16 9.522-3.286 2.05-1.073 4.544-2.772 4.711-3.212.06-.154-.282-1.164-.757-2.244-1.82-4.135-3.71-10.563-4.685-15.933-.276-1.523-.527-4.891-.538-8.439-.011-3.884.244-7.984.548-10.112.782-5.46 2.827-11.426 5.43-15.84 2.643-4.484 6.388-8.86 9.66-11.292 1.643-1.22 5.073-3.078 6.712-3.634 3.557-1.208 7.44-1.484 10.824-.77 7.01 1.48 11.126 4.59 14.004 10.584 1.283 2.673 1.825 4.398 2.535 8.075.484 2.504.605 3.778.63 8.4.026 4.618-.083 5.198-.511 7.314-.538 2.661-2.628 10.122-3.454 12.332-1.129 3.018-4.123 8.373-7.016 12.549-1.905 2.75-3.632 4.794-6.695 7.924-1.564 1.598-2.871 2.936-2.905 2.973-.034.038.044.303.174.589.455.998 3.781 2.846 6.834 3.798 1.809.564 2.093.593 4.692.472 3.346-.155 6.407-.873 8.769-2.058 1.88-.944 1.794-.562.978-4.313-.545-2.506-.62-2.95-.526-7.856.078-4.161.24-5.433.62-7.204 1.86-8.646 6.135-18.04 10.89-23.927 3.309-4.097 8.982-8.21 13.464-9.76 5.931-2.051 11.618-1.786 16.805.785 3.108 1.54 7.41 5.117 8.73 7.258.333.54 1.146 1.79 1.805 2.778l1.2 1.795.587-.346c.322-.19 1.543-1.209 2.713-2.263 2.341-2.109 3.339-2.572 4.979-2.31 3.032.485 5.448 3.045 6.06 6.42.629 3.466-.954 6.463-5.517 10.449-4.18 3.652-4.735 4.303-4.732 5.56.002 1.01-.38 3.781-.911 6.617-2.574 13.74-10.213 24.52-20.644 29.132-3.875 1.713-5.742 2.078-10.639 2.078-3.298 0-4.481-.083-5.783-.404-2.114-.521-4.76-1.513-6.54-2.453-.777-.41-1.49-.744-1.585-.744-.095 0-1.228.451-2.517 1.003-12.907 5.528-24.241 4.961-37.464-1.873-1.67-.864-3.645-1.954-4.389-2.424-.743-.47-1.465-.853-1.605-.853-.14 0-1.117.433-2.172.963-5.593 2.81-13.354 5.558-18.479 6.546-9.063 1.745-16.53 1.186-24.99-1.871-2.793-1.01-6.65-2.997-8.128-4.188-1.2-.967-1.39-1.048-2.153-.926-.46.073-2.177.776-3.814 1.562-6.052 2.903-10.604 4.33-19.843 6.223-1.841.377-3.204.46-8.73.527-3.6.044-7.43-.003-8.511-.102zm159.869-15.115c2.893-.602 6.79-3.265 8.804-6.015.84-1.146 2.027-3.395 2.36-4.47.478-1.545.824-3.142.832-3.842.008-.832.31-.808-3.048-.243-3.015.507-4.1.58-5.884.4-2.48-.25-4.14-.727-6.23-1.789-1.786-.908-2.296-1.365-6.828-6.126-1.146-1.204-1.946-1.874-2.182-1.83-.539.099-2.102 3.397-2.527 5.33-.565 2.572-.485 6.725.18 9.344.67 2.647 1.549 4.211 3.378 6.019 1.957 1.935 3.652 2.788 7.107 3.578.572.13 2.53-.042 4.038-.356zM165.329 59.312c2.692-1.995 5.2-4.956 8.78-10.363 2.227-3.364 3.328-5.515 4.411-8.621 2.183-6.257 2.867-14.287 1.618-18.98-1.143-4.295-3.55-6.78-6.907-7.13-2.456-.257-4.644.79-7.217 3.45-2.87 2.969-4.536 6.255-5.943 11.719-2.121 8.244-2.1 16.623.062 23.927.748 2.528 3.064 7.093 3.598 7.093.067 0 .786-.493 1.598-1.095zm53.94.032c.64-.275 1.757-1.246 3.455-3.001 7.308-7.553 10.584-13.81 13.102-25.023.16-.708.287-2.67.292-4.474.015-5.604-1.041-8.619-3.906-11.14-1.261-1.11-2.597-1.569-4.562-1.566-1.846.003-3.176.545-5.195 2.122-3.936 3.074-7.465 10.859-8.36 18.439-.942 7.995.265 17.488 2.958 23.25.463.99.938 1.801 1.056 1.801.118 0 .64-.183 1.16-.407zm-110.804-.682c2.654-.679 5.253-1.942 8.77-4.262 6.877-4.535 10.125-9.106 9.85-13.86-.134-2.328-.615-3.22-2.137-3.963-2.064-1.009-4.313-.803-7.53.688-5.063 2.348-10.044 8.683-11.546 14.687-.452 1.803-.68 4.756-.474 6.128.14.93.204 1.017.759 1.017.333 0 1.372-.196 2.308-.435zm180.673-13.099c.831-.257 1.714-.712 2.127-1.098.699-.653.704-.674.565-2.175-.397-4.264-3.34-7.849-7.086-8.627-3.46-.719-6.966.775-8.278 3.527-.308.646-.316.883-.064 1.884.768 3.046 2.9 5.556 5.518 6.498 1.647.593 5.283.589 7.218-.009zm126.815 42.5c-1.283-.199-2.581-.95-3.375-1.854-.832-.948-1.728-2.868-3.126-6.705-1.967-5.4-2.614-6.987-3.824-9.381-3.061-6.058-5.747-8.886-10.587-11.148-5.506-2.573-11.403-3.876-15.248-3.37-2.235.295-4.836 1.04-5.247 1.503-.562.634-1.442 7.831-2.313 18.904-.214 2.72-.798 5.923-1.392 7.638-.326.943-.764 1.621-1.56 2.422-2.114 2.124-4.829 2.582-7.693 1.296-2.471-1.108-3.125-2.283-3.287-5.9-.131-2.917.284-10.026.829-14.186.537-4.107.935-8.752.84-9.822l-.076-.873-1.627-.269c-2.327-.385-3.765-1.156-4.932-2.643-1.281-1.632-1.661-2.724-1.659-5.147.002-2.227.548-3.7 1.7-4.81.61-.587 1.538-1.17 2.91-1.663 1.006-.362 2.333-.675 3.533-.906 1.44-.278 2.59-.574 2.73-.7.14-.127.36-1.065.487-2.086.127-1.02.374-2.984.549-4.365.348-2.743.948-8.158 1.657-14.95.25-2.4.651-5.887.89-7.748.24-1.86.49-3.824.557-4.365.522-4.221 2.445-6.28 6.376-6.498 2.081-.115 3.34.15 4.76 1.1 1.428.954 1.798 2.034 1.813 5.29.023 4.526-.358 7.998-2.606 23.898-.23 1.62-.475 3.732-.545 4.692-.07.96-.187 2.21-.258 2.778-.124.984-.101 1.042.498 1.27 2.251.86 9.465-.704 14.595-3.161 4.3-2.06 7.849-4.606 11.863-8.51 3.937-3.83 7.127-8.64 13.858-20.898 1.045-1.902 2.734-3.731 4.023-4.357.837-.405 1.433-.57 3.03-.573 2.206-.004 3.13.403 4.322 1.594 1.141 1.142 1.461 1.995 1.461 4.282 0 3.226-1.143 6.384-3.878 10.96-6.386 10.688-14.356 19.746-22.852 25.974-2.184 1.6-2.3 1.829.106 3.265 6.71 4.006 9.32 7.22 13.042 13.872 2.573 4.6 6.298 13.83 6.787 16.817.547 3.34.019 5.707-1.957 7.577-1.632 1.543-3.369 2.037-5.174 1.757zm19.507-1.035c-1.93-.487-3.793-1.852-4.584-3.357-.374-.711-.47-1.272-.47-2.749 0-1.852.467-6.824 1.087-11.567.18-1.38.374-3.001.43-3.601.21-2.262 1.264-9.352 2.18-14.683.712-4.132 3.066-5.873 7.853-5.81 1.362.019 2.01.144 2.947.57 1.442.655 1.762.992 2.548 2.687.846 1.825.95 5.004.322 9.815a659.63 659.63 0 0 0-.914 7.42c-.997 8.55-1.506 11.914-2.424 16.042-.12.54-.516 1.605-.879 2.367-.633 1.33-.724 1.415-2.267 2.148-1.31.623-1.92.778-3.307.844-.935.045-2.07-.012-2.522-.126zm4.06-48.879c-1.71-.608-4.26-2.432-5.168-3.695-1.193-1.66-1.733-3.484-1.62-5.475.224-3.99 2.445-6.77 6.823-8.541a9.958 9.958 0 0 1 2.055-.602c.574-.112 1.217-.242 2.365-.249 1.153-.006 1.81.105 2.31.203.638.125 1.03.286 1.992.76 2.864 1.416 4.402 3.374 4.94 6.29.216 1.175.2 1.725-.096 3.32-.441 2.381-1.141 3.689-2.856 5.335-2.238 2.149-4.707 3.097-7.824 3.07-1.223-.01-2.184-.154-2.92-.416z"/></svg>